<?xml version="1.0" standalone="no"?>
<svg version="1.0" xmlns="http://www.w3.org/2000/svg"
 width="1298.000000pt" height="1426.000000pt" viewBox="0 0 1298.000000 1426.000000"
 preserveAspectRatio="xMidYMid meet">
<g transform="translate(0.000000,1426.000000) scale(0.100000,-0.100000)"
fill="#E10098" stroke="none">
<path d="M6275 14246 c-333 -66 -593 -306 -686 -631 -29 -101 -36 -286 -15
-395 8 -46 12 -87 8 -91 -10 -10 -2001 -1159 -2008 -1159 -3 0 -29 20 -57 43
-154 129 -299 194 -487 217 -258 31 -536 -65 -721 -249 -104 -105 -190 -256
-230 -406 -28 -105 -31 -306 -6 -410 76 -309 294 -550 580 -640 l72 -23 0
-1168 0 -1167 -65 -22 c-272 -92 -474 -296 -561 -564 -70 -220 -54 -450 46
-656 127 -260 354 -430 644 -480 107 -19 186 -19 296 0 157 28 319 105 429
206 l56 51 1007 -582 c555 -320 1009 -583 1011 -585 2 -2 -4 -37 -12 -79 -45
-217 3 -463 126 -651 218 -332 627 -475 1008 -353 289 93 512 336 581 634 18
79 21 114 16 231 -2 76 -11 162 -19 191 -15 52 -15 54 6 67 11 7 463 268 1004
580 l982 567 64 -59 c398 -363 1032 -287 1326 160 200 303 199 677 -1 977
-103 154 -262 278 -433 336 l-86 29 0 1170 0 1171 49 13 c205 52 423 235 526
441 191 380 82 851 -253 1098 -132 98 -268 152 -432 172 -245 29 -510 -56
-684 -220 l-51 -48 -1005 580 c-553 319 -1008 583 -1012 586 -3 4 1 39 9 77
19 89 12 322 -12 410 -24 88 -96 230 -157 310 -106 138 -292 261 -463 306
-104 27 -293 34 -390 15z m-461 -1525 c-8 -14 -604 -1045 -1323 -2291 -1054
-1826 -1311 -2266 -1329 -2268 l-22 -3 2 1172 3 1172 65 22 c306 104 529 363
585 680 19 111 19 189 0 300 -10 54 -12 92 -7 97 6 6 461 270 1013 589 1022
590 1060 610 1013 530z m2272 -541 l1012 -583 -9 -31 c-21 -72 -29 -206 -18
-302 30 -271 167 -495 394 -643 71 -47 216 -111 250 -111 13 0 15 -126 15
-1175 0 -1135 -1 -1175 -18 -1175 -14 0 -336 549 -1341 2290 -805 1395 -1320
2297 -1317 2306 3 8 9 14 13 11 5 -2 463 -266 1019 -587z m-1651 329 c80 0
152 5 187 14 l58 14 19 -31 c10 -17 607 -1049 1325 -2294 l1307 -2263 -50 -57
c-86 -100 -164 -244 -186 -341 l-7 -31 -2652 0 -2652 0 -13 49 c-26 104 -105
243 -187 331 l-43 46 1326 2295 1325 2296 57 -14 c34 -9 107 -14 186 -14z
m2659 -5435 c4 -15 3 -30 -1 -35 -4 -4 -457 -266 -1007 -583 l-998 -577 -52
49 c-97 92 -229 166 -363 204 -106 31 -351 33 -458 4 -132 -35 -249 -98 -363
-193 l-52 -45 -1008 582 c-554 320 -1009 583 -1011 585 -2 2 -1 11 2 20 6 13
277 15 2656 15 l2649 0 6 -26z"/>
<path d="M719 3025 c-207 -39 -380 -134 -493 -271 -180 -218 -225 -440 -212
-1045 8 -388 29 -510 112 -667 85 -162 175 -251 338 -337 153 -81 356 -114
570 -94 165 15 250 39 374 104 145 76 255 192 332 350 78 159 100 286 100 580
0 190 -1 204 -21 229 l-20 26 -398 0 c-449 0 -423 5 -442 -79 -11 -51 12 -116
44 -125 12 -3 156 -6 320 -6 l297 0 0 -140 c0 -284 -76 -468 -245 -597 -123
-94 -253 -133 -439 -133 -155 0 -259 20 -361 70 -136 65 -233 183 -289 350
-42 126 -48 214 -44 641 l4 394 28 95 c38 131 79 203 161 285 81 81 138 115
250 147 70 20 100 23 245 22 151 -1 172 -3 250 -29 107 -34 236 -118 292 -189
22 -28 64 -97 92 -153 l51 -103 75 0 c106 0 115 8 107 95 -5 51 -17 89 -48
152 -92 186 -287 337 -526 409 -77 24 -109 27 -258 30 -118 2 -193 -1 -246
-11z"/>
<path d="M9845 3020 c-184 -38 -278 -85 -393 -194 -182 -173 -254 -354 -273
-686 -14 -242 -5 -717 17 -831 57 -310 173 -487 394 -603 231 -121 636 -135
892 -31 66 27 52 36 146 -96 34 -48 78 -101 97 -118 34 -29 40 -31 115 -31 68
0 81 3 90 19 21 40 11 78 -37 144 -115 154 -156 213 -160 229 -3 9 15 40 41
73 84 102 133 225 168 415 30 168 38 738 13 927 -36 267 -104 423 -250 568
-107 108 -203 162 -353 202 -134 35 -373 42 -507 13z m382 -205 c187 -36 341
-150 421 -315 80 -163 102 -306 102 -673 0 -285 -7 -380 -40 -518 -58 -244
-222 -417 -450 -475 -78 -20 -272 -22 -370 -4 -153 28 -318 153 -393 297 -90
173 -107 280 -107 684 0 476 31 621 173 807 68 90 235 183 367 205 61 10 225
6 297 -8z"/>
<path d="M7236 3014 c-3 -9 -6 -539 -6 -1180 l0 -1164 25 -16 c35 -23 150 -15
170 12 11 16 14 124 17 579 4 506 6 565 22 615 81 248 252 371 513 370 161 -1
262 -41 357 -140 63 -66 102 -138 127 -235 17 -64 19 -119 19 -608 0 -475 2
-543 16 -573 l16 -34 78 0 c60 0 81 4 91 17 12 13 14 116 14 577 0 634 -3 665
-76 824 -115 249 -317 372 -615 372 -144 0 -236 -16 -319 -55 -71 -34 -206
-139 -225 -176 -6 -11 -15 -17 -21 -14 -5 4 -9 172 -9 426 l0 419 -94 0 c-76
0 -95 -3 -100 -16z"/>
<path d="M11522 2987 l-22 -23 0 -1147 0 -1147 27 -17 c25 -17 75 -18 684 -21
741 -3 725 -4 748 63 17 49 8 108 -20 136 -18 18 -38 19 -619 19 l-600 0 0
1061 0 1061 -22 19 c-17 14 -39 18 -89 19 -56 0 -69 -3 -87 -23z"/>
<path d="M3862 2410 c-108 -29 -226 -94 -297 -165 -80 -78 -115 -149 -115
-230 0 -60 1 -61 33 -73 40 -14 101 -16 126 -3 9 5 32 39 50 75 73 146 207
216 414 216 180 0 301 -45 376 -140 56 -70 75 -134 75 -255 l1 -100 -65 -11
c-36 -7 -108 -17 -160 -24 -295 -36 -444 -63 -555 -100 -300 -101 -450 -304
-414 -557 14 -98 51 -167 139 -255 61 -61 95 -86 161 -118 159 -75 338 -87
540 -36 115 29 197 69 269 130 30 25 59 46 66 46 11 0 24 -64 24 -120 0 -23 7
-31 40 -44 56 -22 112 -20 144 5 l26 20 0 624 c0 688 -2 711 -61 834 -36 72
-130 174 -199 214 -25 14 -81 38 -125 53 -73 25 -96 28 -250 31 -144 3 -181 0
-243 -17z m668 -965 c0 -301 -132 -520 -365 -607 -52 -20 -80 -23 -205 -23
-142 0 -146 1 -212 32 -76 36 -151 100 -178 153 -10 19 -23 63 -30 96 -11 57
-10 62 16 118 74 156 248 231 659 286 50 6 126 18 170 25 44 7 95 13 113 14
l32 1 0 -95z"/>
<path d="M5832 2410 c-100 -26 -199 -81 -277 -152 l-65 -60 0 44 c-1 68 -16
131 -36 145 -25 19 -134 17 -162 -3 l-22 -15 0 -1159 c0 -821 3 -1166 11
-1183 10 -23 17 -24 94 -26 79 -2 83 -1 88 22 4 12 7 204 7 426 1 453 -8 415
81 335 114 -104 228 -155 389 -175 248 -30 448 30 602 182 65 63 85 91 122
170 59 125 81 208 101 386 15 136 15 161 1 308 -30 311 -91 463 -242 605 -79
74 -166 121 -280 150 -105 27 -308 27 -412 0z m363 -202 c115 -38 226 -132
280 -238 62 -123 111 -431 87 -549 -7 -31 -12 -72 -12 -89 0 -30 -16 -104 -43
-197 -17 -58 -97 -176 -148 -217 -103 -85 -201 -113 -371 -106 -108 4 -118 6
-193 43 -153 76 -267 223 -294 380 -37 213 -39 291 -16 461 18 130 26 158 73
248 62 118 178 226 286 262 105 36 244 37 351 2z"/>
<path d="M2353 2388 c-12 -6 -26 -22 -32 -37 -8 -18 -11 -274 -9 -854 3 -948
-7 -857 100 -857 48 0 63 4 82 23 21 21 24 36 31 156 4 73 4 262 1 420 -4 157
-3 372 1 476 8 180 10 193 36 247 40 82 107 152 180 187 67 33 186 56 251 49
58 -7 167 8 177 23 4 7 11 34 14 60 7 51 -11 101 -40 113 -26 9 -222 7 -300
-4 -122 -18 -277 -111 -304 -182 -5 -15 -10 1 -14 54 -6 87 -18 115 -53 128
-33 13 -93 12 -121 -2z"/>
</g>
</svg>
