<svg xmlns="http://www.w3.org/2000/svg" width="900" height="900" viewBox="0 0 900 900" fill="none">
<circle cx="450" cy="450" r="450" fill="white"/>
<path d="M633.131 167L629.683 184.976C624.35 219.044 626.281 228.791 640.901 241.434L655.016 253.112L640.396 318.306C631.66 357.201 620.948 389.798 614.143 400.51C608.305 409.751 601.5 423.36 600.029 430.67C597.592 439.405 589.317 448.187 576.673 455.957C565.501 462.301 543.571 479.312 528.031 492.967C515.618 504.139 507.066 510.989 502.423 513.932L487.251 525.931C482.377 533.747 479.619 540.046 478.561 544.827C477.504 549.747 478.102 553.011 479.665 555.402C481.182 557.701 483.803 559.31 487.389 560.321C491.634 561.316 496.004 561.672 500.354 561.379C510.196 560.706 519.937 558.98 529.41 556.229C532.629 555.356 535.157 554.528 537.364 553.793C540.766 549.609 548.628 541.701 562.559 527.954C599.523 491.496 613.638 471.542 599.063 476.921C593.684 478.852 596.121 473.979 605.362 464.232C624.856 445.244 636.028 416.555 659.383 326.581C677.866 255.549 677.866 254.538 691.474 254.538C697.865 254.538 715.933 255.641 715.933 255.641V167H674.464H633.131ZM703.534 312.513C700.592 312.513 695.718 316.926 692.822 321.8C687.489 330.535 693.787 335.868 774.061 385.982C821.737 416.188 860.173 441.934 859.208 443.911C858.242 445.336 819.301 470.669 772.636 499.863C687.948 552.367 687.489 552.873 695.259 563.585C705.005 576.229 695.259 580.596 805.186 512.001L885 460.922V422.486L795.945 367.5C747.809 337.34 705.971 313.018 703.534 312.513ZM197.431 317.892C194.994 317.892 153.157 342.719 105.02 372.373L15 427.36V465.795L104.515 521.748C154.168 552.367 196.006 577.7 197.937 577.7C199.868 577.7 203.776 573.286 207.684 567.953C213.523 558.712 208.603 554.804 126.399 502.76C48.1024 453.612 39.8268 446.807 47.6427 441.474C52.5161 438.072 89.4805 415.176 129.387 390.395C220.373 334.443 215.5 338.305 208.19 326.627C205.293 321.8 200.374 317.432 197.477 317.892H197.431ZM469.366 318.949C455.941 318.857 427.069 339.317 340.635 409.889C336.911 418.762 336.589 424.877 338.29 428.831C339.393 431.544 341.416 433.429 344.221 434.808C346.979 436.187 350.565 437.015 354.519 437.336C362.381 438.026 371.668 436.785 379.162 435.314L384.219 434.164C385.951 431.843 388.224 429.98 390.84 428.739C396.173 425.797 418.563 405.383 440.953 383.499C480.354 343.592 489.596 325.57 473.55 319.731C472.234 319.207 470.783 318.942 469.366 318.949ZM570.329 346.673C558.513 346.994 537.226 360.695 500.768 389.798C482.469 404.648 470.883 412.648 464.677 414.303L440.586 433.337C431.528 449.888 430.195 460.14 432.586 465.795C433.184 467.19 434.053 468.453 435.142 469.51C436.231 470.568 437.518 471.399 438.93 471.956C442.443 473.343 446.188 474.045 449.965 474.025C458.989 473.929 467.958 472.614 476.63 470.117C481.15 468.904 485.614 467.493 490.009 465.887L491.343 465.336L493.779 464.048C498.377 458.117 508.951 446.945 522.192 434.072C564.03 393.706 585.409 365.017 581.041 354.305C579.064 349.109 575.662 346.489 570.329 346.673ZM458.884 396.326C455.482 396.694 447.85 402.579 434.103 414.624C414.242 432.187 392.587 442.302 385.093 437.796C383.351 438.19 381.604 438.557 379.852 438.9C372.22 440.417 362.703 441.658 354.197 440.969C350.19 440.726 346.262 439.744 342.612 438.072C339.169 436.498 336.421 433.718 334.888 430.256C333.187 426.118 333.187 420.969 335.118 414.395L305.233 438.946L237.603 494.898V585.608L459.206 411.038C459.163 409.127 459.411 407.22 459.941 405.383C461.642 399.223 461.55 396.096 458.884 396.372V396.326ZM554.237 425.705C550.881 425.705 545.272 430.44 536.307 439.957C524.123 452.968 504.951 465.565 494.791 468.14L493.228 468.968C491.559 469.656 489.873 470.3 488.17 470.899C485.412 471.818 481.826 472.922 477.688 474.025C469.412 476.278 459.114 478.347 449.919 478.117C445.584 478.111 441.291 477.268 437.275 475.634C433.491 474.074 430.458 471.108 428.816 467.358C426.149 460.968 427.207 452.003 433.046 439.267L237.557 593.24V648.64H323.44L505.595 505.564C510.331 500.323 517.457 493.151 527.066 484.186C552.812 460.324 558.651 452.095 558.651 439.911C558.651 430.44 557.593 425.659 554.237 425.659V425.705ZM597.592 515.357L582.007 530.897C573.271 539.172 557.685 549.379 547.019 553.747L544.904 554.666L544.766 554.896L544.307 555.356C543.893 555.678 543.709 555.724 543.387 555.862C539.129 557.473 534.803 558.9 530.422 560.137C520.68 562.973 510.661 564.745 500.538 565.424C495.752 565.731 490.946 565.313 486.285 564.183C482.24 563.293 478.669 560.934 476.263 557.563C474.056 554.16 473.412 549.609 474.653 544C475.641 540.006 477.107 536.147 479.021 532.506L332.037 648.64H527.525L550.881 621.882C582.972 584.458 597.592 557.701 597.592 534.805V515.357Z" fill="black"/>
</svg>