<svg width="45" height="45" viewBox="0 0 45 45" fill="none" xmlns="http://www.w3.org/2000/svg">
<circle cx="22.5" cy="22.5" r="22.5" fill="#F3F3F3"/>
<path d="M10.0449 29.2148C8.55534 29.2148 7.3737 28.7064 6.5 27.6895C5.63346 26.6725 5.2002 25.1615 5.2002 23.1562C5.2002 21.1296 5.64421 19.6006 6.53223 18.5693C7.42025 17.5309 8.60189 17.0117 10.0771 17.0117C10.7002 17.0117 11.2445 17.0941 11.71 17.2588C12.1755 17.4235 12.5765 17.6455 12.9131 17.9248C13.2497 18.1969 13.5326 18.5085 13.7617 18.8594H13.8906C13.862 18.6374 13.8333 18.333 13.8047 17.9463C13.776 17.5596 13.7617 17.2445 13.7617 17.001V12.2852H15.5449V29H14.1055L13.8369 27.3242H13.7617C13.5397 27.6751 13.2568 27.9938 12.9131 28.2803C12.5765 28.5667 12.1719 28.7959 11.6992 28.9678C11.2337 29.1325 10.6823 29.2148 10.0449 29.2148ZM10.3242 27.7324C11.5846 27.7324 12.4762 27.3743 12.999 26.6582C13.5218 25.9421 13.7832 24.8786 13.7832 23.4678V23.1455C13.7832 21.6488 13.5326 20.4993 13.0312 19.6973C12.5371 18.8952 11.6348 18.4941 10.3242 18.4941C9.22852 18.4941 8.40853 18.9167 7.86426 19.7617C7.31999 20.5996 7.04785 21.7454 7.04785 23.1992C7.04785 24.6458 7.31641 25.763 7.85352 26.5508C8.39779 27.3385 9.22135 27.7324 10.3242 27.7324ZM19.0576 27.8828C19.0576 27.3815 19.1794 27.027 19.4229 26.8193C19.6663 26.6045 19.9635 26.4971 20.3145 26.4971C20.6797 26.4971 20.9876 26.6045 21.2383 26.8193C21.4889 27.027 21.6143 27.3815 21.6143 27.8828C21.6143 28.377 21.4889 28.7386 21.2383 28.9678C20.9876 29.1898 20.6797 29.3008 20.3145 29.3008C19.9635 29.3008 19.6663 29.1898 19.4229 28.9678C19.1794 28.7386 19.0576 28.377 19.0576 27.8828ZM26.8887 17.2266V29H25.1055V17.2266H26.8887ZM26.0186 12.8223C26.3122 12.8223 26.5628 12.9189 26.7705 13.1123C26.9854 13.2985 27.0928 13.5921 27.0928 13.9932C27.0928 14.387 26.9854 14.6807 26.7705 14.874C26.5628 15.0674 26.3122 15.1641 26.0186 15.1641C25.7106 15.1641 25.4528 15.0674 25.2451 14.874C25.0446 14.6807 24.9443 14.387 24.9443 13.9932C24.9443 13.5921 25.0446 13.2985 25.2451 13.1123C25.4528 12.9189 25.7106 12.8223 26.0186 12.8223ZM40.8213 23.0918C40.8213 24.0586 40.696 24.9215 40.4453 25.6807C40.1947 26.4398 39.833 27.0807 39.3604 27.6035C38.8877 28.1263 38.3148 28.5273 37.6416 28.8066C36.9756 29.0788 36.2201 29.2148 35.375 29.2148C34.5872 29.2148 33.8639 29.0788 33.2051 28.8066C32.5534 28.5273 31.9876 28.1263 31.5078 27.6035C31.0352 27.0807 30.6663 26.4398 30.4014 25.6807C30.1436 24.9215 30.0146 24.0586 30.0146 23.0918C30.0146 21.8027 30.2331 20.707 30.6699 19.8047C31.1068 18.8952 31.7298 18.2041 32.5391 17.7314C33.3555 17.2516 34.3258 17.0117 35.4502 17.0117C36.5244 17.0117 37.4626 17.2516 38.2646 17.7314C39.0739 18.2113 39.7005 18.9059 40.1445 19.8154C40.5957 20.7178 40.8213 21.8099 40.8213 23.0918ZM31.8623 23.0918C31.8623 24.0371 31.9876 24.8571 32.2383 25.5518C32.4889 26.2464 32.8757 26.7835 33.3984 27.1631C33.9212 27.5426 34.5944 27.7324 35.418 27.7324C36.2344 27.7324 36.904 27.5426 37.4268 27.1631C37.9567 26.7835 38.347 26.2464 38.5977 25.5518C38.8483 24.8571 38.9736 24.0371 38.9736 23.0918C38.9736 22.1536 38.8483 21.3444 38.5977 20.6641C38.347 19.9766 37.9603 19.4466 37.4375 19.0742C36.9147 18.7018 36.238 18.5156 35.4072 18.5156C34.1826 18.5156 33.2839 18.9202 32.7109 19.7295C32.1452 20.5387 31.8623 21.6595 31.8623 23.0918Z" fill="black"/>
</svg>
